<svg width="24" height="24" viewBox="0 0 24 24" fill="none" xmlns="http://www.w3.org/2000/svg">
<path d="M23.3151 7.26768H18.2432V1.38047C18.2432 1.0022 17.9366 0.695557 17.5583 0.695557H6.4417C6.06343 0.695557 5.75678 1.0022 5.75678 1.38047V7.26758H0.684912C0.306645 7.26758 0 7.57423 0 7.95249C0 8.33076 0.306645 8.6374 0.684912 8.6374H1.32883V22.6194C1.32883 22.9977 1.63547 23.3043 2.01374 23.3043H21.9863C22.3645 23.3043 22.6712 22.9977 22.6712 22.6194V8.6374H23.3151C23.6934 8.6374 24 8.33076 24 7.95249C24 7.57423 23.6934 7.26768 23.3151 7.26768ZM15.3751 21.9346H12.6803C12.6831 21.9091 12.685 21.8833 12.685 21.8571V20.828H15.3751V21.9346ZM11.3197 21.9346H8.6249V20.828H11.315V21.8571C11.3151 21.8833 11.3169 21.909 11.3197 21.9346ZM16.7449 21.9346V20.143C16.7449 19.7648 16.4383 19.4581 16.06 19.4581H7.93999C7.56172 19.4581 7.25508 19.7648 7.25508 20.143V21.9346H2.69865V8.6375H21.3014V21.9346H16.7449ZM7.12661 2.06538H16.8734V7.26758H7.12661V2.06538Z" fill="#9EA9AE"/>
</svg>
