<svg width="24" height="22" viewBox="0 0 24 22" fill="none" xmlns="http://www.w3.org/2000/svg">
<path fill-rule="evenodd" clip-rule="evenodd" d="M10.5302 2.72414H22.3321C23.0245 2.72414 23.586 3.28556 23.586 3.97807C23.586 4.67058 23.0245 5.23198 22.3321 5.23198H10.5302C10.0125 6.69144 8.61876 7.73981 6.98411 7.73981C5.34945 7.73981 3.95565 6.69144 3.43802 5.23198H1.66749C0.974979 5.23198 0.413574 4.67058 0.413574 3.97807C0.413574 3.28556 0.974979 2.72414 1.66749 2.72414H3.43802C3.95569 1.26469 5.34945 0.216309 6.98411 0.216309C8.61876 0.216309 10.0125 1.26469 10.5302 2.72414ZM5.73146 3.97861C5.73146 4.67002 6.29397 5.23253 6.98538 5.23253C7.67679 5.23253 8.23929 4.67002 8.23929 3.97861C8.23929 3.28719 7.67679 2.72469 6.98538 2.72469C6.29397 2.72469 5.73146 3.28719 5.73146 3.97861ZM10.5302 16.7682H22.3321C23.0245 16.7682 23.586 17.3296 23.586 18.0221C23.586 18.7147 23.0245 19.276 22.3321 19.276H10.5302C10.0125 20.7355 8.61876 21.7839 6.98411 21.7839C5.34945 21.7839 3.95565 20.7355 3.43802 19.276H1.66749C0.974979 19.276 0.413574 18.7147 0.413574 18.0221C0.413574 17.3296 0.974979 16.7682 1.66749 16.7682H3.43802C3.95569 15.3088 5.34945 14.2604 6.98411 14.2604C8.61876 14.2604 10.0126 15.3088 10.5302 16.7682ZM5.73146 18.0224C5.73146 18.7137 6.29397 19.2763 6.98538 19.2763C7.67679 19.2763 8.23929 18.7137 8.23929 18.0224C8.23929 17.3309 7.67679 16.7684 6.98538 16.7684C6.29397 16.7684 5.73146 17.3309 5.73146 18.0224ZM22.3321 9.74627H20.5616C20.0439 8.2868 18.6502 7.23843 17.0155 7.23843C15.3808 7.23843 13.987 8.2868 13.4694 9.74627H1.66749C0.974979 9.74627 0.413574 10.3077 0.413574 11.0002C0.413574 11.6927 0.974979 12.2541 1.66749 12.2541H13.4694C13.987 13.7135 15.3808 14.7619 17.0155 14.7619C18.6502 14.7619 20.0439 13.7135 20.5616 12.2541H22.3321C23.0245 12.2541 23.586 11.6927 23.586 11.0002C23.586 10.3077 23.0245 9.74627 22.3321 9.74627ZM17.0166 12.2543C16.3253 12.2543 15.7627 11.6918 15.7627 11.0004C15.7627 10.309 16.3253 9.74648 17.0166 9.74648C17.7081 9.74648 18.2705 10.309 18.2705 11.0004C18.2705 11.6918 17.7081 12.2543 17.0166 12.2543Z" fill="#667085"/>
</svg>
