<svg width="145" height="40" viewBox="0 0 145 40" fill="none" xmlns="http://www.w3.org/2000/svg">
<g clip-path="url(#clip0_400_10311)">
<path fill-rule="evenodd" clip-rule="evenodd" d="M65.6816 26.7032C67.9251 28.9467 71.4454 29.1656 73.9443 27.3599L77.4463 31.2997C77.5922 31.4638 77.7929 31.555 78.0117 31.5733C78.2306 31.5733 78.4313 31.5003 78.5954 31.3362L79.325 30.6066C79.4892 30.4424 79.5621 30.2418 79.5621 30.0229C79.5621 29.804 79.4709 29.6034 79.2885 29.4575L75.3487 25.9554C77.1727 23.4565 76.9538 19.9545 74.6921 17.6927C72.1932 15.1939 68.1622 15.1939 65.6634 17.6927C63.201 20.1734 63.201 24.2226 65.6816 26.7032ZM73.7801 25.773C71.8102 27.7429 68.6 27.7429 66.6301 25.773C64.6602 23.8031 64.6602 20.5929 66.6301 18.623C68.6 16.6531 71.8102 16.6531 73.7801 18.623C75.75 20.5929 75.75 23.8031 73.7801 25.773Z" fill="white"/>
<path d="M4.03077 17.3573V34.0005H2.01538V17.3573H4.03077ZM8.07169 17.3573H10.4771L16.1332 31.1725H16.3283L21.9843 17.3573H24.3898V34.0005H22.5044V21.3556H22.3419L17.1409 34.0005H15.3206L10.1196 21.3556H9.95705V34.0005H8.07169V17.3573ZM28.4307 17.3573H30.8362L36.4922 31.1725H36.6873L42.3433 17.3573H44.7488V34.0005H42.8634V21.3556H42.7009L37.4999 34.0005H35.6796L30.4786 21.3556H30.3161V34.0005H28.4307V17.3573Z" fill="white"/>
<path d="M95.6467 34.0005V17.3573H105.691V19.1452H97.6621V24.7687H105.171V26.5566H97.6621V32.2126H105.821V34.0005H95.6467ZM122.521 17.3573V34.0005H120.571L111.502 20.933H111.339V34.0005H109.324V17.3573H111.274L120.376 30.4573H120.538V17.3573H122.521ZM135.656 21.5181C135.558 20.6946 135.163 20.0553 134.469 19.6003C133.776 19.1452 132.925 18.9176 131.918 18.9176C131.181 18.9176 130.536 19.0368 129.983 19.2752C129.436 19.5136 129.008 19.8413 128.699 20.2585C128.396 20.6757 128.244 21.1497 128.244 21.6806C128.244 22.1249 128.35 22.5068 128.561 22.8265C128.778 23.1407 129.054 23.4035 129.39 23.6148C129.726 23.8206 130.078 23.9913 130.447 24.1267C130.815 24.2568 131.154 24.3624 131.462 24.4437L133.153 24.8988C133.586 25.0125 134.068 25.1696 134.599 25.3701C135.136 25.5706 135.648 25.8441 136.135 26.1909C136.628 26.5322 137.035 26.971 137.354 27.5074C137.674 28.0437 137.834 28.702 137.834 29.4821C137.834 30.3815 137.598 31.1941 137.127 31.9201C136.661 32.6461 135.978 33.223 135.079 33.651C134.185 34.079 133.099 34.293 131.82 34.293C130.628 34.293 129.596 34.1007 128.724 33.7161C127.857 33.3314 127.174 32.7951 126.676 32.107C126.183 31.419 125.904 30.6198 125.839 29.7097H127.919C127.973 30.3381 128.185 30.8582 128.553 31.27C128.927 31.6763 129.398 31.9797 129.967 32.1801C130.541 32.3752 131.159 32.4727 131.82 32.4727C132.589 32.4727 133.28 32.3481 133.892 32.0989C134.504 31.8442 134.989 31.4921 135.347 31.0424C135.704 30.5873 135.883 30.0564 135.883 29.4496C135.883 28.897 135.729 28.4474 135.42 28.1006C135.111 27.7539 134.705 27.4722 134.201 27.2555C133.697 27.0388 133.153 26.8491 132.568 26.6866L130.52 26.1015C129.22 25.7277 128.19 25.194 127.432 24.5006C126.673 23.8071 126.294 22.8996 126.294 21.7782C126.294 20.8463 126.546 20.0337 127.05 19.3402C127.559 18.6413 128.242 18.0996 129.098 17.7149C129.959 17.3248 130.921 17.1298 131.983 17.1298C133.055 17.1298 134.009 17.3221 134.843 17.7068C135.677 18.086 136.338 18.6061 136.826 19.2671C137.319 19.928 137.579 20.6784 137.606 21.5181H135.656Z" fill="white"/>
<path fill-rule="evenodd" clip-rule="evenodd" d="M86.6759 34.9658V39.9818H80.9669H91.6919V14.1359C85.0161 9.43001 78.3586 4.70588 71.6828 0C65.0252 4.70588 58.3677 9.43001 51.6919 14.1359V40H67.9436V34.984H56.7079V16.7442C61.7056 13.2057 66.7033 9.66712 71.6828 6.14683C76.6805 9.66712 81.6782 13.2057 86.6577 16.7442V34.9658H80.9486" fill="#1DB3B3"/>
</g>
<defs>
<clipPath id="clip0_400_10311">
<rect width="144.131" height="40" fill="white"/>
</clipPath>
</defs>
</svg>
