<svg width="145" height="40" viewBox="0 0 145 40" fill="none" xmlns="http://www.w3.org/2000/svg">
<g clip-path="url(#clip0_363_430)">
<path fill-rule="evenodd" clip-rule="evenodd" d="M65.6816 26.7031C67.9251 28.9466 71.4454 29.1655 73.9443 27.3597L77.4463 31.2996C77.5922 31.4637 77.7929 31.5549 78.0117 31.5732C78.2306 31.5732 78.4313 31.5002 78.5954 31.336L79.325 30.6064C79.4892 30.4423 79.5621 30.2416 79.5621 30.0228C79.5621 29.8039 79.4709 29.6033 79.2885 29.4573L75.3487 25.9553C77.1727 23.4564 76.9538 19.9544 74.6921 17.6926C72.1932 15.1938 68.1622 15.1938 65.6634 17.6926C63.201 20.1732 63.201 24.2225 65.6816 26.7031ZM73.7801 25.7729C71.8102 27.7428 68.6 27.7428 66.6301 25.7729C64.6602 23.803 64.6602 20.5928 66.6301 18.6229C68.6 16.653 71.8102 16.653 73.7801 18.6229C75.75 20.5928 75.75 23.803 73.7801 25.7729Z" fill="#293039"/>
<path d="M4.03077 17.3572V34.0004H2.01538V17.3572H4.03077ZM8.07169 17.3572H10.4771L16.1332 31.1723H16.3283L21.9843 17.3572H24.3898V34.0004H22.5044V21.3555H22.3419L17.1409 34.0004H15.3206L10.1196 21.3555H9.95705V34.0004H8.07169V17.3572ZM28.4307 17.3572H30.8362L36.4922 31.1723H36.6873L42.3433 17.3572H44.7488V34.0004H42.8634V21.3555H42.7009L37.4999 34.0004H35.6796L30.4786 21.3555H30.3161V34.0004H28.4307V17.3572Z" fill="#293039"/>
<path d="M95.6467 34.0004V17.3572H105.691V19.145H97.6621V24.7686H105.171V26.5565H97.6621V32.2125H105.821V34.0004H95.6467ZM122.521 17.3572V34.0004H120.571L111.502 20.9329H111.339V34.0004H109.324V17.3572H111.274L120.376 30.4572H120.538V17.3572H122.521ZM135.656 21.518C135.558 20.6945 135.163 20.0552 134.469 19.6001C133.776 19.145 132.925 18.9175 131.918 18.9175C131.181 18.9175 130.536 19.0367 129.983 19.2751C129.436 19.5135 129.008 19.8412 128.699 20.2584C128.396 20.6755 128.244 21.1496 128.244 21.6805C128.244 22.1248 128.35 22.5067 128.561 22.8264C128.778 23.1406 129.054 23.4034 129.39 23.6146C129.726 23.8205 130.078 23.9912 130.447 24.1266C130.815 24.2566 131.154 24.3623 131.462 24.4436L133.153 24.8986C133.586 25.0124 134.068 25.1695 134.599 25.37C135.136 25.5704 135.648 25.844 136.135 26.1908C136.628 26.5321 137.035 26.9709 137.354 27.5073C137.674 28.0436 137.834 28.7019 137.834 29.482C137.834 30.3813 137.598 31.194 137.127 31.92C136.661 32.6459 135.978 33.2229 135.079 33.6509C134.185 34.0789 133.099 34.2929 131.82 34.2929C130.628 34.2929 129.596 34.1006 128.724 33.7159C127.857 33.3313 127.174 32.7949 126.676 32.1069C126.183 31.4188 125.904 30.6197 125.839 29.7096H127.919C127.973 30.338 128.185 30.8581 128.553 31.2698C128.927 31.6762 129.398 31.9796 129.967 32.18C130.541 32.3751 131.159 32.4726 131.82 32.4726C132.589 32.4726 133.28 32.348 133.892 32.0988C134.504 31.8441 134.989 31.492 135.347 31.0423C135.704 30.5872 135.883 30.0563 135.883 29.4495C135.883 28.8969 135.729 28.4472 135.42 28.1005C135.111 27.7538 134.705 27.472 134.201 27.2553C133.697 27.0386 133.153 26.849 132.568 26.6865L130.52 26.1014C129.22 25.7275 128.19 25.1939 127.432 24.5004C126.673 23.807 126.294 22.8995 126.294 21.778C126.294 20.8462 126.546 20.0335 127.05 19.3401C127.559 18.6412 128.242 18.0994 129.098 17.7148C129.959 17.3247 130.921 17.1297 131.983 17.1297C133.055 17.1297 134.009 17.322 134.843 17.7066C135.677 18.0859 136.338 18.606 136.826 19.2669C137.319 19.9279 137.579 20.6783 137.606 21.518H135.656Z" fill="#293039"/>
<path fill-rule="evenodd" clip-rule="evenodd" d="M86.6759 34.9658V39.9818H80.9669H91.6919V14.1359C85.0161 9.43001 78.3586 4.70588 71.6828 0C65.0252 4.70588 58.3677 9.43001 51.6919 14.1359V40H67.9436V34.984H56.7079V16.7442C61.7056 13.2057 66.7033 9.66712 71.6828 6.14683C76.6805 9.66712 81.6782 13.2057 86.6577 16.7442V34.9658H80.9486" fill="#1DB3B3"/>
</g>
<defs>
<clipPath id="clip0_363_430">
<rect width="144.131" height="40" fill="white"/>
</clipPath>
</defs>
</svg>
