<svg width="30" height="30" viewBox="0 0 30 30" fill="none" xmlns="http://www.w3.org/2000/svg">
<rect width="30" height="30" rx="6" fill="white"/>
<path d="M17.6673 12.333C18.7282 12.333 19.7456 12.7544 20.4957 13.5046C21.2459 14.2547 21.6673 15.2721 21.6673 16.333V20.9997H19.0007V16.333C19.0007 15.9794 18.8602 15.6402 18.6101 15.3902C18.3601 15.1402 18.0209 14.9997 17.6673 14.9997C17.3137 14.9997 16.9746 15.1402 16.7245 15.3902C16.4745 15.6402 16.334 15.9794 16.334 16.333V20.9997H13.6673V16.333C13.6673 15.2721 14.0887 14.2547 14.8389 13.5046C15.589 12.7544 16.6065 12.333 17.6673 12.333Z" fill="#1DB3B3"/>
<path d="M11.0007 12.9997H8.33398V20.9997H11.0007V12.9997Z" fill="#1DB3B3"/>
<path d="M9.66732 10.9997C10.4037 10.9997 11.0007 10.4027 11.0007 9.66634C11.0007 8.92996 10.4037 8.33301 9.66732 8.33301C8.93094 8.33301 8.33398 8.92996 8.33398 9.66634C8.33398 10.4027 8.93094 10.9997 9.66732 10.9997Z" fill="#1DB3B3"/>
</svg>
