<svg width="60" height="54" viewBox="0 0 60 54" fill="none" xmlns="http://www.w3.org/2000/svg">
<path d="M59.406 28.0591C58.6786 27.4163 57.5675 27.4854 56.9249 28.2128L56.8965 28.2448V27.0131C56.8965 19.8289 54.0987 13.0745 49.0183 7.99435C43.9385 2.91439 37.1843 0.117126 30.0001 0.117126C25.6605 0.117126 21.3484 1.17545 17.5292 3.17724C13.8342 5.11412 10.5909 7.93154 8.15014 11.3259C7.58342 12.1137 7.76283 13.2124 8.55115 13.7791C9.33936 14.3463 10.438 14.1669 11.0047 13.3785C13.1278 10.426 15.9486 7.97502 19.1617 6.29103C22.479 4.55197 26.2267 3.63275 30.0001 3.63275C42.8921 3.63275 53.3809 14.1215 53.3809 27.0135V28.2453L53.3521 28.2133C52.7093 27.4854 51.5983 27.4168 50.871 28.0594C50.1431 28.7022 50.0744 29.8131 50.7171 30.5405L53.8208 34.0544C53.9858 34.2411 54.1886 34.3905 54.4157 34.4929C54.6428 34.5952 54.8891 34.6481 55.1382 34.6481C55.3873 34.6481 55.6336 34.5952 55.8608 34.4929C56.0879 34.3905 56.2907 34.2411 56.4556 34.0544L59.5592 30.5405C60.2025 29.8128 60.1338 28.7017 59.406 28.0591ZM51.449 40.241C50.6608 39.6744 49.5627 39.8533 48.9955 40.6416C46.8724 43.5937 44.0516 46.0445 40.8385 47.7291C37.5212 49.4682 33.773 50.3874 30.0001 50.3874C17.1081 50.3874 6.61932 39.8987 6.61932 27.0066V25.7747L6.64815 25.8073C7.29092 26.5347 8.40186 26.6038 9.12924 25.9606C9.85709 25.3179 9.92576 24.2069 9.28311 23.4795L6.1794 19.9658C6.01449 19.779 5.81174 19.6294 5.58461 19.5269C5.35747 19.4244 5.11115 19.3715 4.86197 19.3715C4.6128 19.3715 4.36647 19.4244 4.13934 19.5269C3.91221 19.6294 3.70946 19.779 3.54455 19.9658L0.44049 23.4795C-0.202284 24.2074 -0.133612 25.3179 0.59424 25.9606C0.91485 26.2451 1.32879 26.402 1.75744 26.4015C2.24365 26.4015 2.72787 26.2005 3.07533 25.8073L3.10369 25.7747V27.0066C3.10369 34.1913 5.90154 40.945 10.9819 46.0253C16.0617 51.1056 22.8159 53.903 30.0001 53.903C34.3392 53.903 38.6518 52.8446 42.471 50.8428C46.1655 48.906 49.4088 46.088 51.8496 42.6942C52.4163 41.906 52.2374 40.8077 51.449 40.241Z" fill="white"/>
<path d="M12.6621 31.5105C12.6022 31.7334 12.5869 31.966 12.6171 32.1948C12.6473 32.4237 12.7223 32.6443 12.8379 32.8441L16.3535 38.9336C16.5866 39.3373 16.9705 39.6318 17.4208 39.7524C17.871 39.873 18.3508 39.8098 18.7544 39.5767L21.3395 38.0845C22.3724 38.8915 23.5125 39.5512 24.7269 40.0447V43.0251C24.7269 43.9957 25.5138 44.7829 26.4847 44.7829H33.5159C34.4864 44.7829 35.2738 43.9957 35.2738 43.0251V40.0447C36.4882 39.5512 37.6282 38.8915 38.6612 38.0845L41.2462 39.5769C41.6499 39.8098 42.1295 39.8731 42.5797 39.7526C42.8027 39.6929 43.0118 39.5898 43.1949 39.4493C43.3781 39.3088 43.5318 39.1336 43.6473 38.9336L47.1629 32.8441C47.3959 32.4404 47.4591 31.9608 47.3387 31.5105C47.2178 31.0602 46.9232 30.6763 46.5195 30.443L43.9292 28.9476C44.0181 28.3058 44.0629 27.6562 44.0629 27.0066C44.0629 26.3492 44.0172 25.6933 43.9261 25.0442L46.5198 23.5469C46.9235 23.3137 47.2181 22.9297 47.3387 22.4793C47.4593 22.029 47.3961 21.5491 47.1629 21.1454L43.6473 15.0563C43.1621 14.2159 42.0868 13.9278 41.2463 14.4131L38.6444 15.9154C37.6158 15.1146 36.4815 14.4595 35.2738 13.9687V10.9647C35.2738 9.99441 34.4868 9.20691 33.5159 9.20691H26.4847C25.5138 9.20691 24.7269 9.99441 24.7269 10.9647V13.9687C23.5193 14.4596 22.3852 15.1147 21.3568 15.9157L18.7544 14.4133C17.9139 13.9276 16.8388 14.216 16.3535 15.0563L12.8379 21.1455C12.6047 21.5492 12.5415 22.029 12.6621 22.4794C12.7827 22.9297 13.0773 23.3137 13.481 23.5469L16.0747 25.0443C15.9835 25.6945 15.9378 26.3501 15.9378 27.0066C15.9378 27.6562 15.9827 28.3053 16.0714 28.9476L13.4816 30.443C13.2815 30.5584 13.1062 30.7121 12.9656 30.8953C12.8249 31.0784 12.7218 31.2874 12.6621 31.5105ZM30.0003 21.7333C32.9127 21.7333 35.2738 24.0944 35.2738 27.0068C35.2738 29.9191 32.9127 32.2802 30.0003 32.2802C27.0876 32.2802 24.7269 29.9191 24.7269 27.0068C24.7269 24.0944 27.088 21.7333 30.0003 21.7333Z" fill="white"/>
</svg>
