<svg width="26" height="26" viewBox="0 0 26 26" fill="none" xmlns="http://www.w3.org/2000/svg">
<path d="M3.24984 3.25H22.7498C23.0372 3.25 23.3127 3.36414 23.5159 3.5673C23.719 3.77047 23.8332 4.04602 23.8332 4.33333V21.6667C23.8332 21.954 23.719 22.2295 23.5159 22.4327C23.3127 22.6359 23.0372 22.75 22.7498 22.75H3.24984C2.96252 22.75 2.68697 22.6359 2.4838 22.4327C2.28064 22.2295 2.1665 21.954 2.1665 21.6667V4.33333C2.1665 4.04602 2.28064 3.77047 2.4838 3.5673C2.68697 3.36414 2.96252 3.25 3.24984 3.25ZM13.0648 12.6566L6.1185 6.75783L4.71559 8.40883L13.0789 15.5101L21.2917 8.40342L19.8747 6.76433L13.0648 12.6566Z" fill="#1DB3B3"/>
</svg>
