<svg width="58" height="54" viewBox="0 0 58 54" fill="none" xmlns="http://www.w3.org/2000/svg">
<path d="M39.3125 38.1875V32.99C38.1689 32.8853 37.085 32.4322 36.2072 31.6918C35.3294 30.9515 34.6999 29.9596 34.4037 28.85L33.6875 29.5625V34.4375C33.689 35.6803 34.1833 36.8717 35.0621 37.7505C35.9408 38.6292 37.1323 39.1235 38.375 39.125C38.6236 39.125 38.8621 39.0263 39.0379 38.8504C39.2137 38.6746 39.3125 38.4362 39.3125 38.1875Z" fill="white"/>
<path d="M21.5103 25.8931C21.6865 25.8047 21.886 25.7741 22.0806 25.8056C22.2751 25.837 22.4548 25.929 22.5941 26.0684L24.3125 27.7869V26.9375C24.3112 26.3219 24.4311 25.7121 24.6654 25.1429C24.8997 24.5737 25.2438 24.0562 25.6782 23.6199C26.5553 22.7389 27.7465 22.2424 28.9897 22.2397C30.2329 22.237 31.4263 22.7282 32.3073 23.6053C33.1883 24.4825 33.6848 25.6737 33.6875 26.9169L34.536 26.0684C34.675 25.9278 34.8551 25.8347 35.0503 25.8025C35.2455 25.7704 35.4459 25.8008 35.6227 25.8894C35.7996 25.9781 35.9439 26.1204 36.0349 26.296C36.126 26.4716 36.1592 26.6716 36.1297 26.8672C36.0195 27.6461 36.157 28.4399 36.5227 29.1363C36.8885 29.8328 37.464 30.3965 38.1678 30.7479C38.8717 31.0992 39.6681 31.2203 40.4446 31.0941C41.221 30.9678 41.9381 30.6006 42.4944 30.0443C43.0506 29.4881 43.4178 28.771 43.5441 27.9946C43.6703 27.2181 43.5492 26.4216 43.1979 25.7178C42.8466 25.014 42.2828 24.4385 41.5863 24.0727C40.8899 23.707 40.0961 23.5695 39.3172 23.6797C39.1216 23.7092 38.9216 23.676 38.746 23.5849C38.5704 23.4939 38.4281 23.3496 38.3394 23.1727C38.2508 22.9958 38.2204 22.7955 38.2525 22.6003C38.2847 22.4051 38.3778 22.225 38.5185 22.0859L44.4838 16.1113L40.2819 11.9103C39.8941 12.7224 39.3171 13.4295 38.5994 13.9724C37.8817 14.5152 37.0442 14.878 36.1573 15.0301C35.2703 15.1823 34.3598 15.1195 33.5022 14.8469C32.6446 14.5743 31.8649 14.0999 31.2286 13.4636C30.5923 12.8273 30.1179 12.0476 29.8453 11.19C29.5727 10.3324 29.5099 9.42188 29.6621 8.53495C29.8143 7.64802 30.177 6.81054 30.7199 6.09283C31.2627 5.37513 31.9699 4.79814 32.7819 4.41032L28.5688 0.213135L22.5941 6.17845C22.455 6.31914 22.275 6.41223 22.0798 6.44439C21.8846 6.47654 21.6842 6.44613 21.5073 6.35749C21.3305 6.26884 21.1862 6.12652 21.0951 5.95089C21.004 5.77526 20.9709 5.57533 21.0003 5.3797C21.0821 4.80453 21.0292 4.21823 20.8457 3.66702C20.6622 3.11581 20.3531 2.61478 19.9428 2.20345C19.2281 1.52254 18.2788 1.14273 17.2916 1.14273C16.3044 1.14273 15.3551 1.52254 14.6403 2.20345C14.0861 2.76024 13.7207 3.47705 13.5957 4.2527C13.4708 5.02834 13.5926 5.82364 13.944 6.52631C14.2954 7.22899 14.8586 7.80356 15.5541 8.16891C16.2496 8.53426 17.0423 8.67194 17.8203 8.56251C18.016 8.53304 18.2159 8.56621 18.3915 8.65727C18.5672 8.74834 18.7095 8.89263 18.7981 9.0695C18.8868 9.24636 18.9172 9.44674 18.885 9.64194C18.8529 9.83715 18.7598 10.0172 18.6191 10.1563L12.6528 16.1188L18.62 22.0934C18.7608 22.2326 18.854 22.4127 18.8861 22.608C18.9183 22.8034 18.8878 23.0038 18.799 23.1808C18.7103 23.3577 18.5678 23.502 18.3919 23.593C18.2161 23.6839 18.016 23.7169 17.8203 23.6872C17.0415 23.577 16.2476 23.7145 15.5512 24.0802C14.8548 24.446 14.291 25.0215 13.9396 25.7253C13.5883 26.4291 13.4672 27.2256 13.5935 28.0021C13.7197 28.7785 14.0869 29.4956 14.6432 30.0518C15.1994 30.6081 15.9165 30.9753 16.6929 31.1016C17.4694 31.2278 18.2659 31.1067 18.9697 30.7554C19.6735 30.404 20.249 29.8403 20.6148 29.1438C20.9806 28.4474 21.1181 27.6536 21.0078 26.8747C20.9771 26.679 21.0092 26.4786 21.0995 26.3022C21.1898 26.1259 21.3336 25.9827 21.5103 25.8931Z" fill="white"/>
<path d="M32.1088 50.4978L33.0463 48.6228C33.4999 47.7112 33.736 46.7067 33.736 45.6884C33.736 44.6702 33.4999 43.6657 33.0463 42.7541L32.7031 42.0659C32.1188 40.8934 31.814 39.6016 31.8125 38.2916V26.9375C31.8125 26.1916 31.5162 25.4762 30.9887 24.9488C30.4613 24.4213 29.7459 24.125 29 24.125C28.2541 24.125 27.5387 24.4213 27.0113 24.9488C26.4838 25.4762 26.1875 26.1916 26.1875 26.9375V40.0625C26.1875 40.3111 26.0887 40.5496 25.9129 40.7254C25.7371 40.9012 25.4986 41 25.25 41C25.0014 41 24.7629 40.9012 24.5871 40.7254C24.4113 40.5496 24.3125 40.3111 24.3125 40.0625V30.4381L22.7244 28.8509C22.4048 30.0463 21.6992 31.1026 20.7175 31.8557C19.7357 32.6087 18.5326 33.0164 17.2953 33.0153C17.1959 33.0153 17.0994 33.0059 17.0009 33.0013L14.7078 39.6013C14.5185 40.0064 14.4273 40.4504 14.4417 40.8974C14.456 41.3443 14.5754 41.7816 14.7903 42.1738C14.8072 42.204 14.8223 42.2354 14.8353 42.2675L18.125 50.0525C18.4933 50.74 18.6865 51.5076 18.6875 52.2875V53.1875H31.8125V51.755C31.8129 51.3187 31.9143 50.8884 32.1088 50.4978ZM56.1875 17.5625H50.5625C50.3139 17.5625 50.0754 17.4637 49.8996 17.2879C49.7238 17.1121 49.625 16.8736 49.625 16.625C49.625 16.3764 49.7238 16.1379 49.8996 15.9621C50.0754 15.7863 50.3139 15.6875 50.5625 15.6875H56.1875C56.4361 15.6875 56.6746 15.7863 56.8504 15.9621C57.0262 16.1379 57.125 16.3764 57.125 16.625C57.125 16.8736 57.0262 17.1121 56.8504 17.2879C56.6746 17.4637 56.4361 17.5625 56.1875 17.5625ZM49.5491 6.78126C49.3427 6.78125 49.1421 6.71314 48.9784 6.58751C48.8147 6.46188 48.697 6.28574 48.6435 6.0864C48.5901 5.88707 48.604 5.67568 48.683 5.48501C48.7619 5.29435 48.9016 5.13507 49.0803 5.03188L53.9553 2.21938C54.1705 2.09702 54.4254 2.06475 54.6643 2.12962C54.9032 2.19448 55.1068 2.35121 55.2306 2.5656C55.3544 2.78 55.3883 3.03465 55.325 3.27399C55.2618 3.51333 55.1064 3.71793 54.8928 3.84313L50.0178 6.65563C49.8754 6.73825 49.7137 6.7816 49.5491 6.78126ZM54.4194 31.1563C54.2548 31.1566 54.093 31.1133 53.9506 31.0306L49.0756 28.2181C48.9681 28.157 48.8738 28.0753 48.7981 27.9775C48.7223 27.8798 48.6666 27.7681 48.6342 27.6488C48.6018 27.5295 48.5934 27.4049 48.6093 27.2823C48.6252 27.1597 48.6653 27.0415 48.7271 26.9344C48.7889 26.8273 48.8713 26.7335 48.9695 26.6584C49.0677 26.5833 49.1798 26.5284 49.2994 26.4968C49.4189 26.4652 49.5435 26.4575 49.666 26.4743C49.7885 26.491 49.9065 26.5319 50.0131 26.5944L54.8881 29.4069C55.0668 29.5101 55.2065 29.6693 55.2855 29.86C55.3644 30.0507 55.3783 30.2621 55.3249 30.4614C55.2715 30.6607 55.1538 30.8369 54.9901 30.9625C54.8263 31.0881 54.6257 31.1562 54.4194 31.1563ZM7.4375 17.5625H1.8125C1.56386 17.5625 1.3254 17.4637 1.14959 17.2879C0.973772 17.1121 0.875 16.8736 0.875 16.625C0.875 16.3764 0.973772 16.1379 1.14959 15.9621C1.3254 15.7863 1.56386 15.6875 1.8125 15.6875H7.4375C7.68614 15.6875 7.9246 15.7863 8.10041 15.9621C8.27623 16.1379 8.375 16.3764 8.375 16.625C8.375 16.8736 8.27623 17.1121 8.10041 17.2879C7.9246 17.4637 7.68614 17.5625 7.4375 17.5625ZM8.45094 6.78126C8.28632 6.7816 8.12457 6.73825 7.98219 6.65563L3.10719 3.84313C2.89362 3.71793 2.73824 3.51333 2.67496 3.27399C2.61169 3.03465 2.64565 2.78 2.76943 2.5656C2.89321 2.35121 3.09677 2.19448 3.33569 2.12962C3.5746 2.06475 3.82948 2.09702 4.04469 2.21938L8.91969 5.03188C9.0984 5.13507 9.23807 5.29435 9.31704 5.48501C9.39601 5.67568 9.40986 5.88707 9.35645 6.0864C9.30304 6.28574 9.18535 6.46188 9.02163 6.58751C8.8579 6.71314 8.65731 6.78125 8.45094 6.78126ZM3.58063 31.1563C3.37426 31.1562 3.17366 31.0881 3.00994 30.9625C2.84622 30.8369 2.72852 30.6607 2.67511 30.4614C2.6217 30.2621 2.63555 30.0507 2.71452 29.86C2.79349 29.6693 2.93316 29.5101 3.11188 29.4069L7.98688 26.5944C8.09354 26.5319 8.21151 26.491 8.33401 26.4743C8.45651 26.4575 8.58111 26.4652 8.70064 26.4968C8.82017 26.5284 8.93227 26.5833 9.03048 26.6584C9.12869 26.7335 9.21108 26.8273 9.2729 26.9344C9.33472 27.0415 9.37475 27.1597 9.39069 27.2823C9.40663 27.4049 9.39815 27.5295 9.36576 27.6488C9.33337 27.7681 9.27769 27.8798 9.20194 27.9775C9.12619 28.0753 9.03186 28.157 8.92438 28.2181L4.04938 31.0306C3.907 31.1133 3.74524 31.1566 3.58063 31.1563Z" fill="white"/>
</svg>
