<svg width="56" height="56" viewBox="0 0 56 56" fill="none" xmlns="http://www.w3.org/2000/svg">
<path d="M44.4923 19.5167C46.1035 22.4281 47.0225 25.7737 47.0225 29.3301C47.0225 40.5419 37.9011 49.6633 26.6893 49.6633C15.4775 49.6633 6.35623 40.5419 6.35623 29.3302C6.35623 18.1186 15.4775 8.99711 26.6893 8.99711C30.1564 8.99711 33.4231 9.87027 36.2824 11.4068L40.4695 7.21973C36.3757 4.65742 31.6381 3.28516 26.6892 3.28516C19.7324 3.28516 13.1918 5.9943 8.27248 10.9136C3.35318 15.8329 0.644043 22.3734 0.644043 29.3303C0.644043 36.2871 3.35318 42.8277 8.27248 47.7469C13.1919 52.6663 19.7324 55.3755 26.6892 55.3755C33.646 55.3755 40.1866 52.6663 45.1058 47.7469C50.0252 42.8276 52.7344 36.2871 52.7344 29.3303C52.7344 24.297 51.3154 19.4821 48.6681 15.3409L44.4923 19.5167Z" fill="white"/>
<path d="M28.6824 24.5171C26.8075 23.7488 24.5642 24.1179 23.0435 25.6387C21.0148 27.6674 21.0148 30.94 23.0435 32.953C25.0715 34.981 28.344 34.981 30.3569 32.953C31.8784 31.4312 32.2467 29.1882 31.4785 27.3142L46.3364 12.4562L48.8108 12.7787L55.3559 6.23289L50.4088 5.57277L49.7478 0.624878L43.2019 7.18574L43.5252 9.65933L28.6824 24.5171Z" fill="white"/>
<path d="M36.3776 27.6311C36.4757 28.1921 36.525 28.7606 36.5249 29.3302C36.5249 34.7538 32.1126 39.1661 26.689 39.1661C21.2655 39.1661 16.8531 34.7539 16.8531 29.3302C16.8531 23.9068 21.2654 19.4944 26.689 19.4944C27.1659 19.4944 27.6348 19.5292 28.0938 19.5951L32.698 14.9909C30.8484 14.2129 28.8181 13.7823 26.689 13.7823C18.1159 13.7823 11.1411 20.7571 11.1411 29.3302C11.1411 37.9033 18.1159 44.8782 26.689 44.8782C35.262 44.8782 42.2369 37.9033 42.2369 29.3302C42.2369 27.1094 41.7678 24.9964 40.9253 23.0834L36.3776 27.6311Z" fill="white"/>
</svg>
