<svg width="54" height="44" viewBox="0 0 54 44" fill="none" xmlns="http://www.w3.org/2000/svg">
<path fill-rule="evenodd" clip-rule="evenodd" d="M27.6829 0.087305C23.3201 -0.0590954 19.0213 1.16641 15.3915 3.5913C11.3104 6.3198 8.3215 10.3995 6.95021 15.1133C6.57888 15.068 6.13421 15.088 5.60621 15.2373C3.63488 15.7973 2.15288 17.412 1.48621 18.8346C0.62088 20.6886 0.256214 23.1413 0.64088 25.672C1.02288 28.1953 2.08888 30.2753 3.42221 31.5666C4.75955 32.8586 6.26955 33.2786 7.76955 32.9633C10.0029 32.4866 11.1102 32.13 10.7975 30.05L9.28421 19.9633C9.43791 17.2181 10.2278 14.5461 11.5914 12.1585C12.955 9.77097 14.8551 7.73313 17.1415 6.20597C20.2229 4.14453 23.8731 3.10116 27.5785 3.22266C31.2838 3.34416 34.8578 4.62443 37.7975 6.88331C39.8272 8.43944 41.4962 10.4162 42.69 12.6779C43.8839 14.9397 44.5744 17.4329 44.7142 19.9866L43.6555 27.042C42.5069 30.1908 40.4891 32.9494 37.8361 34.9978C35.1832 37.0462 32.0038 38.3006 28.6669 38.6153H24.1562C23.8802 38.6147 23.6068 38.6686 23.3517 38.7739C23.0965 38.8792 22.8647 39.0338 22.6694 39.2289C22.4742 39.424 22.3194 39.6558 22.214 39.9108C22.1085 40.1659 22.0544 40.4393 22.0549 40.7153V41.8233C22.0544 42.0994 22.1084 42.3728 22.2138 42.628C22.3192 42.8831 22.474 43.1149 22.6692 43.3101C22.8645 43.5053 23.0963 43.66 23.3515 43.7653C23.6067 43.8707 23.8801 43.9246 24.1562 43.924H29.8435C30.1193 43.9244 30.3924 43.8704 30.6472 43.7649C30.902 43.6595 31.1335 43.5048 31.3283 43.3097C31.5231 43.1145 31.6775 42.8828 31.7825 42.6279C31.8875 42.3729 31.9411 42.0997 31.9402 41.824V41.244C37.05 39.9928 41.5017 36.864 44.4095 32.48L46.2315 32.9633C47.7142 33.348 49.2422 32.858 50.5789 31.5666C51.9122 30.2746 52.9776 28.1953 53.3602 25.672C53.7469 23.1406 53.3709 20.6926 52.5162 18.8346C51.6582 16.9766 50.3802 15.7966 48.9049 15.3733C48.2869 15.1953 47.6162 15.13 47.0409 15.1133C45.8025 10.85 43.2358 7.09327 39.7142 4.38997C36.2526 1.73254 32.0447 0.227703 27.6829 0.087305Z" fill="white"/>
<path fill-rule="evenodd" clip-rule="evenodd" d="M34.3401 18.2333C35.0626 18.2342 35.7552 18.5216 36.266 19.0326C36.7768 19.5435 37.0641 20.2362 37.0648 20.9587C37.0635 21.6811 36.776 22.3736 36.2652 22.8844C35.7543 23.3952 35.0619 23.6828 34.3394 23.684C33.6162 23.6842 32.9225 23.3972 32.4107 22.8862C31.8989 22.3752 31.611 21.6819 31.6101 20.9587C31.6103 20.6004 31.681 20.2458 31.8183 19.9149C31.9555 19.584 32.1566 19.2834 32.4101 19.0303C32.6635 18.7772 32.9644 18.5764 33.2954 18.4396C33.6265 18.3027 33.9812 18.2324 34.3394 18.2327L34.3401 18.2333ZM27.0001 18.2333C27.539 18.2336 28.0658 18.3936 28.5138 18.6932C28.9618 18.9928 29.3109 19.4185 29.517 19.9165C29.7231 20.4145 29.7769 20.9624 29.6716 21.4909C29.5664 22.0195 29.3068 22.505 28.9256 22.886C28.5445 23.267 28.059 23.5265 27.5304 23.6316C27.0018 23.7368 26.4539 23.6828 25.956 23.4766C25.4581 23.2704 25.0324 22.9212 24.733 22.4731C24.4335 22.0251 24.2736 21.4983 24.2734 20.9593C24.2731 20.6012 24.3434 20.2464 24.4803 19.9155C24.6172 19.5845 24.818 19.2838 25.0713 19.0305C25.3245 18.7772 25.6253 18.5764 25.9562 18.4395C26.2872 18.3026 26.6419 18.233 27.0001 18.2333ZM19.6621 18.2333C20.0251 18.2253 20.386 18.2898 20.7237 18.4232C21.0613 18.5566 21.369 18.756 21.6285 19.0099C21.8881 19.2637 22.0943 19.5669 22.2351 19.9016C22.3759 20.2362 22.4484 20.5956 22.4484 20.9587C22.4484 21.3217 22.3759 21.6811 22.2351 22.0158C22.0943 22.3504 21.8881 22.6536 21.6285 22.9074C21.369 23.1613 21.0613 23.3608 20.7237 23.4941C20.386 23.6275 20.0251 23.692 19.6621 23.684C18.9466 23.6728 18.2642 23.3807 17.7621 22.8708C17.2601 22.3608 16.9787 21.6739 16.9787 20.9583C16.9787 20.2427 17.2601 19.5558 17.7621 19.0459C18.2642 18.5359 18.9466 18.2445 19.6621 18.2333ZM27.0001 6.52399C19.0068 6.52399 12.5654 12.7533 12.5654 20.958C12.5654 24.8987 14.0554 28.3813 16.4828 30.9367L15.6214 34.798C15.3374 36.0687 16.2188 36.9233 17.3614 36.2873L21.1314 34.184C22.9838 34.986 24.9816 35.3977 27.0001 35.3933C34.9961 35.3933 41.4334 29.168 41.4334 20.96C41.4334 12.7547 34.9961 6.52532 27.0001 6.52532V6.52399Z" fill="white"/>
</svg>
